<?xml version="1.0" encoding="UTF-8" standalone="no"?>
<!-- Created with Inkscape (http://www.inkscape.org/) -->

<svg
   xmlns:dc="http://purl.org/dc/elements/1.1/"
   xmlns:cc="http://creativecommons.org/ns#"
   xmlns:rdf="http://www.w3.org/1999/02/22-rdf-syntax-ns#"
   xmlns:svg="http://www.w3.org/2000/svg"
   xmlns="http://www.w3.org/2000/svg"
   xmlns:sodipodi="http://sodipodi.sourceforge.net/DTD/sodipodi-0.dtd"
   xmlns:inkscape="http://www.inkscape.org/namespaces/inkscape"
   width="60"
   height="60"
   viewBox="0 0 60 60"
   id="svg2"
   version="1.1"
   inkscape:version="0.91 r13725"
   sodipodi:docname="xfce4_xicon1.svg">
  <defs
     id="defs4" />
  <sodipodi:namedview
     id="base"
     pagecolor="#ffffff"
     bordercolor="#666666"
     borderopacity="1.0"
     inkscape:pageopacity="0.0"
     inkscape:pageshadow="2"
     inkscape:zoom="0.35"
     inkscape:cx="54.173375"
     inkscape:cy="72.27483"
     inkscape:document-units="px"
     inkscape:current-layer="g3346"
     showgrid="false"
     fit-margin-top="10"
     fit-margin-left="10"
     fit-margin-right="10"
     fit-margin-bottom="10"
     units="px"
     inkscape:window-width="1366"
     inkscape:window-height="709"
     inkscape:window-x="1916"
     inkscape:window-y="312"
     inkscape:window-maximized="1" />
  <metadata
     id="metadata7">
    <rdf:RDF>
      <cc:Work
         rdf:about="">
        <dc:format>image/svg+xml</dc:format>
        <dc:type
           rdf:resource="http://purl.org/dc/dcmitype/StillImage" />
        <dc:title></dc:title>
      </cc:Work>
    </rdf:RDF>
  </metadata>
  <g
     inkscape:label="Layer 1"
     inkscape:groupmode="layer"
     id="layer1"
     transform="translate(-273.68377,-544.63704)">
    <g
       transform="matrix(2.6735239,0,0,-2.6735239,-117.61739,552.24092)"
       inkscape:label="ink_ext_XXXXXX"
       id="g3344">
      <g
         transform="scale(0.1,0.1)"
         id="g3346">
        <path
           inkscape:connector-curvature="0"
           id="path3368"
           style="fill:#0c61ab;fill-opacity:1;fill-rule:nonzero;stroke:none"
           d="m 1678.4302,-93.511397 c -0.1935,-5.01545 -2.0775,-9.265323 -5.6413,-12.734203 -1.7797,-1.72884 -3.7479,-3.05432 -5.8913,-3.97085 -2.1434,-0.91466 -4.4695,-1.42037 -6.9691,-1.51898 l -0.027,-0.004 -122.0023,0 c 0.2739,-0.73566 0.5769,-1.48627 0.9128,-2.24576 0.4966,-1.13012 1.0662,-2.28735 1.6998,-3.46514 l 0.01,-0.022 c 0.3267,-0.64966 0.6846,-1.34372 1.0607,-2.07002 1.3966,-2.47758 2.976,-4.83643 4.7305,-7.06022 l 0,0 c 1.862,-2.3626 3.9344,-4.59153 6.2054,-6.68211 2.2691,-2.08825 4.6812,-3.95263 7.2205,-5.58471 2.5397,-1.63582 5.2216,-3.04343 8.0403,-4.22464 l 0,-0.004 c 2.987,-1.26706 6.147,-2.26753 9.4719,-2.99599 3.3189,-0.72663 6.7952,-1.18489 10.4137,-1.36745 l 0,0.002 1.1063,0 c 2.4958,0 4.8051,-0.42536 6.9139,-1.27249 2.1088,-0.84894 4.0129,-2.12148 5.7034,-3.8139 l 0,0.004 c 1.6873,-1.68691 2.9613,-3.59115 3.8124,-5.70711 0.8469,-2.10685 1.2741,-4.41271 1.2741,-6.91393 0,-2.49571 -0.4272,-4.80886 -1.2741,-6.9431 -0.8455,-2.13059 -2.1219,-4.07133 -3.8068,-5.80391 -1.6905,-1.73808 -3.5946,-3.04894 -5.7053,-3.92159 -2.1088,-0.87086 -4.4162,-1.30903 -6.9176,-1.30903 l -3.1819,0 c -0.5226,0 -1.0446,0.0256 -1.5667,0.0748 -0.5001,0.0457 -0.9913,0.11867 -1.4587,0.21 -3.8834,0.2793 -7.73,0.81604 -11.5312,1.60292 l 0,0 c -3.81,0.7887 -7.5855,1.83848 -11.3138,3.14387 -3.7152,1.29992 -7.3135,2.80062 -10.7768,4.49669 -3.467,1.69607 -6.8083,3.5948 -10.016,5.68889 -6.421,4.18631 -12.2432,9.17048 -17.4573,14.94149 -2.6108,2.8919 -5.0116,5.94449 -7.1951,9.15225 -2.1835,3.20584 -4.1663,6.58545 -5.939,10.12912 l 0,0.003 c -3.4415,6.97983 -5.9445,14.16578 -7.5036,21.53961 -1.5573,7.37243 -2.1744,14.947233 -1.8476,22.721146 0.3268,7.772043 1.5975,15.260856 3.8065,22.452413 2.2092,7.19109 5.364,14.094274 9.459,20.703478 l 0.014,0.02898 1.1447,1.692379 0,0.0037 1.2086,1.76342 0.01,0.0037 c 0.4235,0.615539 0.8617,1.216121 1.3017,1.796605 l 0,-0.0037 c 0.3907,0.515051 0.7832,1.013277 1.1776,1.491872 l 0,1.98636 1.4514,-1.750801 19.7687,-23.836317 c 0.4875,-0.587962 1.0005,-1.1376 1.5263,-1.637695 0.5276,-0.500564 1.0826,-0.962334 1.6577,-1.38204 l 0.5933,-0.430923 -0.3596,-0.631896 c -0.8508,-1.511503 -1.6304,-3.050579 -2.326,-4.602749 -0.544,-1.21191 -1.0479,-2.45 -1.5117,-3.71332 l 101.7464,0 c -0.3669,1.01888 -0.7871,2.06675 -1.2582,3.14218 -0.6314,1.44047 -1.3638,2.948231 -2.1906,4.511145 -1.7237,3.267914 -3.7572,6.302603 -6.0923,9.09192 -2.3406,2.793524 -4.9878,5.352889 -7.9365,7.666414 l 0,0 c -2.9576,2.318667 -6.0829,4.310167 -9.3766,5.96609 -3.2973,1.659662 -6.7662,2.992627 -10.3973,3.989079 l -0.01,0 c -3.5455,0.998789 -7.1312,1.601239 -10.759,1.80782 -3.6311,0.204245 -7.3117,0.0089 -11.0344,-0.579082 -2.5266,-0.399608 -5.0061,-0.969343 -7.4304,-1.703127 -2.4173,-0.732383 -4.7686,-1.628816 -7.0508,-2.680419 l -0.652,-0.304731 -0.3833,0.611799 c -0.2028,0.322959 -0.4234,0.649657 -0.6571,0.971213 -0.2468,0.339317 -0.4931,0.659005 -0.7324,0.945509 l 0,0 -20.5956,24.833235 -0.6152,0.74313 0.8362,0.48748 c 4.8053,2.78791 9.7618,5.128544 14.8628,7.0144235 5.0921,1.884 10.3608,3.32446 15.7796,4.317644 l 0.024,0.004 c 7.1677,1.11704 14.2915,1.39653 21.3606,0.83988 7.0691,-0.55711 14.0999,-1.953644 21.0797,-4.188184 6.9775,-2.2331395 13.4769,-5.2159535 19.4855,-8.9423635 6.01,-3.726407 11.533,-8.199221 16.5574,-13.410028 l 0,-0.0033 c 4.0933,-4.184441 7.7355,-8.650246 10.9175,-13.391804 3.1893,-4.748567 5.9263,-9.779901 8.2048,-15.078107 2.2785,-5.303813 3.9928,-10.75532 5.1337,-16.351246 1.1413,-5.594053 1.7143,-11.324586 1.7143,-17.183176 l 0,-1.106753 0,-0.029" />
      </g>
    </g>
  </g>
</svg>
